<?xml version="1.0" encoding="UTF-8" standalone="no"?>
<!-- Created with Inkscape (http://www.inkscape.org/) -->

<svg
   width="167.88684mm"
   height="50.206379mm"
   viewBox="0 0 167.88684 50.206379"
   version="1.1"
   id="svg1"
   inkscape:version="1.4 (86a8ad7, 2024-10-11)"
   sodipodi:docname="merito.svg"
   xmlns:inkscape="http://www.inkscape.org/namespaces/inkscape"
   xmlns:sodipodi="http://sodipodi.sourceforge.net/DTD/sodipodi-0.dtd"
   xmlns="http://www.w3.org/2000/svg"
   xmlns:svg="http://www.w3.org/2000/svg">
  <sodipodi:namedview
     id="namedview1"
     pagecolor="#ffffff"
     bordercolor="#999999"
     borderopacity="1"
     inkscape:showpageshadow="0"
     inkscape:pageopacity="0"
     inkscape:pagecheckerboard="0"
     inkscape:deskcolor="#d1d1d1"
     inkscape:document-units="mm"
     inkscape:zoom="0.97904742"
     inkscape:cx="229.81522"
     inkscape:cy="183.34148"
     inkscape:current-layer="layer1" />
  <defs
     id="defs1">
    <clipPath
       clipPathUnits="userSpaceOnUse"
       id="clipPath2">
      <path
         d="M 0,351.496 H 685.664 V 0 H 0 Z"
         transform="translate(-318.26491,-184.199)"
         id="path2" />
    </clipPath>
    <clipPath
       clipPathUnits="userSpaceOnUse"
       id="clipPath4">
      <path
         d="M 0,351.496 H 685.664 V 0 H 0 Z"
         transform="translate(-358.23041,-208.034)"
         id="path4" />
    </clipPath>
    <clipPath
       clipPathUnits="userSpaceOnUse"
       id="clipPath6">
      <path
         d="M 0,351.496 H 685.664 V 0 H 0 Z"
         id="path6" />
    </clipPath>
    <clipPath
       clipPathUnits="userSpaceOnUse"
       id="clipPath8">
      <path
         d="M 0,351.496 H 685.664 V 0 H 0 Z"
         transform="translate(-407.24521,-208.034)"
         id="path8" />
    </clipPath>
    <clipPath
       clipPathUnits="userSpaceOnUse"
       id="clipPath10">
      <path
         d="M 0,351.496 H 685.664 V 0 H 0 Z"
         transform="translate(-437.02511,-201.53711)"
         id="path10" />
    </clipPath>
    <clipPath
       clipPathUnits="userSpaceOnUse"
       id="clipPath12">
      <path
         d="M 0,351.496 H 685.664 V 0 H 0 Z"
         transform="translate(-447.05961,-196.3538)"
         id="path12" />
    </clipPath>
    <clipPath
       clipPathUnits="userSpaceOnUse"
       id="clipPath14">
      <path
         d="M 0,351.496 H 685.664 V 0 H 0 Z"
         transform="translate(-466.63901,-183.9071)"
         id="path14" />
    </clipPath>
    <clipPath
       clipPathUnits="userSpaceOnUse"
       id="clipPath16">
      <path
         d="M 0,351.496 H 685.664 V 0 H 0 Z"
         transform="translate(-503.37382,-208.034)"
         id="path16" />
    </clipPath>
    <clipPath
       clipPathUnits="userSpaceOnUse"
       id="clipPath18">
      <path
         d="M 0,351.496 H 685.664 V 0 H 0 Z"
         transform="translate(-534.17731,-208.034)"
         id="path18" />
    </clipPath>
    <clipPath
       clipPathUnits="userSpaceOnUse"
       id="clipPath20">
      <path
         d="M 0,351.496 H 685.664 V 0 H 0 Z"
         transform="translate(-556.87732,-201.53711)"
         id="path20" />
    </clipPath>
    <clipPath
       clipPathUnits="userSpaceOnUse"
       id="clipPath22">
      <path
         d="M 0,351.496 H 685.664 V 0 H 0 Z"
         transform="translate(-580.78171,-208.034)"
         id="path22" />
    </clipPath>
    <clipPath
       clipPathUnits="userSpaceOnUse"
       id="clipPath24">
      <path
         d="M 0,351.496 H 685.664 V 0 H 0 Z"
         transform="translate(-342.82991,-169.4521)"
         id="path24" />
    </clipPath>
    <clipPath
       clipPathUnits="userSpaceOnUse"
       id="clipPath26">
      <path
         d="M 0,351.496 H 685.664 V 0 H 0 Z"
         transform="translate(-353.46541,-145.3252)"
         id="path26" />
    </clipPath>
    <clipPath
       clipPathUnits="userSpaceOnUse"
       id="clipPath28">
      <path
         d="M 0,351.496 H 685.664 V 0 H 0 Z"
         transform="translate(-388.66721,-149.19421)"
         id="path28" />
    </clipPath>
    <clipPath
       clipPathUnits="userSpaceOnUse"
       id="clipPath30">
      <path
         d="M 0,351.496 H 685.664 V 0 H 0 Z"
         transform="translate(-429.06771,-169.4521)"
         id="path30" />
    </clipPath>
    <clipPath
       clipPathUnits="userSpaceOnUse"
       id="clipPath32">
      <path
         d="M 0,351.496 H 685.664 V 0 H 0 Z"
         transform="translate(-464.39721,-162.95521)"
         id="path32" />
    </clipPath>
    <clipPath
       clipPathUnits="userSpaceOnUse"
       id="clipPath34">
      <path
         d="M 0,351.496 H 685.664 V 0 H 0 Z"
         transform="translate(-474.43161,-157.7719)"
         id="path34" />
    </clipPath>
    <clipPath
       clipPathUnits="userSpaceOnUse"
       id="clipPath36">
      <path
         d="M 0,351.496 H 685.664 V 0 H 0 Z"
         id="path36" />
    </clipPath>
    <clipPath
       clipPathUnits="userSpaceOnUse"
       id="clipPath38">
      <path
         d="M 0,351.496 H 685.664 V 0 H 0 Z"
         transform="translate(-524.39572,-169.4521)"
         id="path38" />
    </clipPath>
    <clipPath
       clipPathUnits="userSpaceOnUse"
       id="clipPath40">
      <path
         d="M 0,351.496 H 685.664 V 0 H 0 Z"
         transform="translate(-538.04392,-149.19421)"
         id="path40" />
    </clipPath>
    <clipPath
       clipPathUnits="userSpaceOnUse"
       id="clipPath42">
      <path
         d="M 0,351.496 H 685.664 V 0 H 0 Z"
         transform="translate(-317.07891,-106.74331)"
         id="path42" />
    </clipPath>
    <clipPath
       clipPathUnits="userSpaceOnUse"
       id="clipPath44">
      <path
         d="M 0,351.496 H 685.664 V 0 H 0 Z"
         transform="translate(-360.89491,-111.3788)"
         id="path44" />
    </clipPath>
    <clipPath
       clipPathUnits="userSpaceOnUse"
       id="clipPath46">
      <path
         d="M 0,351.496 H 685.664 V 0 H 0 Z"
         transform="translate(-365.45541,-107.98441)"
         id="path46" />
    </clipPath>
    <clipPath
       clipPathUnits="userSpaceOnUse"
       id="clipPath48">
      <path
         d="M 0,351.496 H 685.664 V 0 H 0 Z"
         transform="translate(-411.11301,-111.3788)"
         id="path48" />
    </clipPath>
    <clipPath
       clipPathUnits="userSpaceOnUse"
       id="clipPath50">
      <path
         d="M 0,351.496 H 685.664 V 0 H 0 Z"
         transform="translate(-434.36191,-124.3733)"
         id="path50" />
    </clipPath>
    <clipPath
       clipPathUnits="userSpaceOnUse"
       id="clipPath52">
      <path
         d="M 0,351.496 H 685.664 V 0 H 0 Z"
         transform="translate(-439.65121,-107.98441)"
         id="path52" />
    </clipPath>
    <clipPath
       clipPathUnits="userSpaceOnUse"
       id="clipPath54">
      <path
         d="M 0,351.496 H 685.664 V 0 H 0 Z"
         id="path54" />
    </clipPath>
    <clipPath
       clipPathUnits="userSpaceOnUse"
       id="clipPath56">
      <path
         d="M 0,351.496 H 685.664 V 0 H 0 Z"
         transform="translate(-492.20661,-130.87021)"
         id="path56" />
    </clipPath>
    <clipPath
       clipPathUnits="userSpaceOnUse"
       id="clipPath58">
      <path
         d="M 0,351.496 H 685.664 V 0 H 0 Z"
         transform="translate(-213.34801,-246.6086)"
         id="path58" />
    </clipPath>
    <clipPath
       clipPathUnits="userSpaceOnUse"
       id="clipPath2-2">
      <path
         d="M 0,351.496 H 685.664 V 0 H 0 Z"
         transform="translate(-318.26491,-184.199)"
         id="path2-4" />
    </clipPath>
    <clipPath
       clipPathUnits="userSpaceOnUse"
       id="clipPath4-5">
      <path
         d="M 0,351.496 H 685.664 V 0 H 0 Z"
         transform="translate(-358.23041,-208.034)"
         id="path4-5" />
    </clipPath>
    <clipPath
       clipPathUnits="userSpaceOnUse"
       id="clipPath6-1">
      <path
         d="M 0,351.496 H 685.664 V 0 H 0 Z"
         id="path6-7" />
    </clipPath>
    <clipPath
       clipPathUnits="userSpaceOnUse"
       id="clipPath8-1">
      <path
         d="M 0,351.496 H 685.664 V 0 H 0 Z"
         transform="translate(-407.24521,-208.034)"
         id="path8-1" />
    </clipPath>
    <clipPath
       clipPathUnits="userSpaceOnUse"
       id="clipPath10-5">
      <path
         d="M 0,351.496 H 685.664 V 0 H 0 Z"
         transform="translate(-437.02511,-201.53711)"
         id="path10-2" />
    </clipPath>
    <clipPath
       clipPathUnits="userSpaceOnUse"
       id="clipPath12-7">
      <path
         d="M 0,351.496 H 685.664 V 0 H 0 Z"
         transform="translate(-447.05961,-196.3538)"
         id="path12-6" />
    </clipPath>
    <clipPath
       clipPathUnits="userSpaceOnUse"
       id="clipPath14-1">
      <path
         d="M 0,351.496 H 685.664 V 0 H 0 Z"
         transform="translate(-466.63901,-183.9071)"
         id="path14-4" />
    </clipPath>
    <clipPath
       clipPathUnits="userSpaceOnUse"
       id="clipPath16-2">
      <path
         d="M 0,351.496 H 685.664 V 0 H 0 Z"
         transform="translate(-503.37382,-208.034)"
         id="path16-3" />
    </clipPath>
    <clipPath
       clipPathUnits="userSpaceOnUse"
       id="clipPath18-2">
      <path
         d="M 0,351.496 H 685.664 V 0 H 0 Z"
         transform="translate(-534.17731,-208.034)"
         id="path18-2" />
    </clipPath>
    <clipPath
       clipPathUnits="userSpaceOnUse"
       id="clipPath20-1">
      <path
         d="M 0,351.496 H 685.664 V 0 H 0 Z"
         transform="translate(-556.87732,-201.53711)"
         id="path20-6" />
    </clipPath>
    <clipPath
       clipPathUnits="userSpaceOnUse"
       id="clipPath22-8">
      <path
         d="M 0,351.496 H 685.664 V 0 H 0 Z"
         transform="translate(-580.78171,-208.034)"
         id="path22-5" />
    </clipPath>
    <clipPath
       clipPathUnits="userSpaceOnUse"
       id="clipPath24-7">
      <path
         d="M 0,351.496 H 685.664 V 0 H 0 Z"
         transform="translate(-342.82991,-169.4521)"
         id="path24-6" />
    </clipPath>
    <clipPath
       clipPathUnits="userSpaceOnUse"
       id="clipPath26-1">
      <path
         d="M 0,351.496 H 685.664 V 0 H 0 Z"
         transform="translate(-353.46541,-145.3252)"
         id="path26-8" />
    </clipPath>
    <clipPath
       clipPathUnits="userSpaceOnUse"
       id="clipPath28-9">
      <path
         d="M 0,351.496 H 685.664 V 0 H 0 Z"
         transform="translate(-388.66721,-149.19421)"
         id="path28-2" />
    </clipPath>
    <clipPath
       clipPathUnits="userSpaceOnUse"
       id="clipPath30-7">
      <path
         d="M 0,351.496 H 685.664 V 0 H 0 Z"
         transform="translate(-429.06771,-169.4521)"
         id="path30-9" />
    </clipPath>
    <clipPath
       clipPathUnits="userSpaceOnUse"
       id="clipPath32-5">
      <path
         d="M 0,351.496 H 685.664 V 0 H 0 Z"
         transform="translate(-464.39721,-162.95521)"
         id="path32-4" />
    </clipPath>
    <clipPath
       clipPathUnits="userSpaceOnUse"
       id="clipPath34-3">
      <path
         d="M 0,351.496 H 685.664 V 0 H 0 Z"
         transform="translate(-474.43161,-157.7719)"
         id="path34-1" />
    </clipPath>
    <clipPath
       clipPathUnits="userSpaceOnUse"
       id="clipPath36-2">
      <path
         d="M 0,351.496 H 685.664 V 0 H 0 Z"
         id="path36-3" />
    </clipPath>
    <clipPath
       clipPathUnits="userSpaceOnUse"
       id="clipPath38-3">
      <path
         d="M 0,351.496 H 685.664 V 0 H 0 Z"
         transform="translate(-524.39572,-169.4521)"
         id="path38-4" />
    </clipPath>
    <clipPath
       clipPathUnits="userSpaceOnUse"
       id="clipPath40-1">
      <path
         d="M 0,351.496 H 685.664 V 0 H 0 Z"
         transform="translate(-538.04392,-149.19421)"
         id="path40-1" />
    </clipPath>
    <clipPath
       clipPathUnits="userSpaceOnUse"
       id="clipPath42-3">
      <path
         d="M 0,351.496 H 685.664 V 0 H 0 Z"
         transform="translate(-317.07891,-106.74331)"
         id="path42-8" />
    </clipPath>
    <clipPath
       clipPathUnits="userSpaceOnUse"
       id="clipPath44-7">
      <path
         d="M 0,351.496 H 685.664 V 0 H 0 Z"
         transform="translate(-360.89491,-111.3788)"
         id="path44-4" />
    </clipPath>
    <clipPath
       clipPathUnits="userSpaceOnUse"
       id="clipPath46-2">
      <path
         d="M 0,351.496 H 685.664 V 0 H 0 Z"
         transform="translate(-365.45541,-107.98441)"
         id="path46-7" />
    </clipPath>
    <clipPath
       clipPathUnits="userSpaceOnUse"
       id="clipPath48-7">
      <path
         d="M 0,351.496 H 685.664 V 0 H 0 Z"
         transform="translate(-411.11301,-111.3788)"
         id="path48-9" />
    </clipPath>
    <clipPath
       clipPathUnits="userSpaceOnUse"
       id="clipPath50-3">
      <path
         d="M 0,351.496 H 685.664 V 0 H 0 Z"
         transform="translate(-434.36191,-124.3733)"
         id="path50-1" />
    </clipPath>
    <clipPath
       clipPathUnits="userSpaceOnUse"
       id="clipPath52-9">
      <path
         d="M 0,351.496 H 685.664 V 0 H 0 Z"
         transform="translate(-439.65121,-107.98441)"
         id="path52-8" />
    </clipPath>
    <clipPath
       clipPathUnits="userSpaceOnUse"
       id="clipPath54-6">
      <path
         d="M 0,351.496 H 685.664 V 0 H 0 Z"
         id="path54-5" />
    </clipPath>
    <clipPath
       clipPathUnits="userSpaceOnUse"
       id="clipPath56-0">
      <path
         d="M 0,351.496 H 685.664 V 0 H 0 Z"
         transform="translate(-492.20661,-130.87021)"
         id="path56-2" />
    </clipPath>
    <clipPath
       clipPathUnits="userSpaceOnUse"
       id="clipPath58-8">
      <path
         d="M 0,351.496 H 685.664 V 0 H 0 Z"
         transform="translate(-213.34801,-246.6086)"
         id="path58-6" />
    </clipPath>
  </defs>
  <g
     inkscape:label="Layer 1"
     inkscape:groupmode="layer"
     id="layer1"
     transform="translate(2.6458335,-86.254166)">
    <g
       id="g1"
       transform="translate(-1.5846628,-2.1184484)">
      <path
         id="path1"
         d="M 0,0 C -2.19,1.825 -3.285,4.429 -3.285,7.811 V 23.835 H 4.015 V 7.739 C 4.015,6.375 4.398,5.33 5.165,4.6 5.931,3.87 7.008,3.504 8.395,3.504 9.783,3.504 10.859,3.87 11.626,4.6 12.393,5.33 12.776,6.375 12.776,7.739 V 23.835 H 20.075 V 7.811 C 20.075,4.38 19.017,1.765 16.9,-0.036 14.759,-1.837 11.924,-2.738 8.395,-2.738 4.94,-2.738 2.141,-1.825 0,0"
         style="fill:#12204c;fill-opacity:1;fill-rule:nonzero;stroke:none"
         transform="matrix(0.35277776,0,0,-0.35277776,74.215573,110.39145)"
         clip-path="url(#clipPath2-2)" />
      <path
         id="path3"
         d="M 0,0 H 6.935 V -25.988 H -0.767 L -6.278,-16.754 C -7.763,-14.247 -8.955,-12.106 -9.856,-10.329 -9.735,-13.907 -9.673,-17.715 -9.673,-21.754 V -25.988 H -16.609 V 0 H -8.907 L -3.396,-9.234 C -2.081,-11.473 -0.889,-13.627 0.182,-15.695 0.061,-12.118 0,-8.298 0,-4.234 Z"
         style="fill:#12204c;fill-opacity:1;fill-rule:nonzero;stroke:none"
         transform="matrix(0.35277776,0,0,-0.35277776,88.314512,101.983)"
         clip-path="url(#clipPath4-5)" />
      <path
         id="path5"
         d="M 368.811,208.034 H 376.112 V 182.046 H 368.811 Z"
         style="fill:#12204c;fill-opacity:1;fill-rule:nonzero;stroke:none"
         transform="matrix(0.35277776,0,0,-0.35277776,-38.06121,175.37277)"
         clip-path="url(#clipPath6-1)" />
      <path
         id="path7"
         d="M 0,0 H 7.629 L 0.621,-25.988 H -7.556 L -9.162,-18.287 C -9.915,-14.612 -10.5,-11.449 -10.913,-8.796 -11.375,-11.668 -11.973,-14.831 -12.703,-18.287 L -14.309,-25.988 H -22.484 L -29.492,0 H -21.863 L -20.184,-7.483 C -19.115,-12.227 -18.383,-15.695 -17.994,-17.885 -17.435,-14.479 -16.79,-11.011 -16.06,-7.483 L -14.527,0 H -7.337 L -5.804,-7.483 C -5.074,-11.011 -4.429,-14.479 -3.869,-17.885 -3.455,-15.695 -2.725,-12.227 -1.679,-7.483 Z"
         style="fill:#12204c;fill-opacity:1;fill-rule:nonzero;stroke:none"
         transform="matrix(0.35277776,0,0,-0.35277776,105.60585,101.983)"
         clip-path="url(#clipPath8-1)" />
      <path
         id="path9"
         d="M 0,0 H -13.213 V -3.431 H -1.167 V -9.49 H -13.213 V -12.994 H 0 V -19.491 H -20.514 V 6.497 H 0 Z"
         style="fill:#12204c;fill-opacity:1;fill-rule:nonzero;stroke:none"
         transform="matrix(0.35277776,0,0,-0.35277776,116.11153,104.27496)"
         clip-path="url(#clipPath10-5)" />
      <path
         id="path11"
         d="M 0,0 H 4.38 C 6.546,0 7.629,0.998 7.629,2.993 7.629,4.989 6.546,5.986 4.38,5.986 H 0 Z M 14.819,-11.68 C 14.868,-12.751 15.087,-13.627 15.476,-14.308 H 7.957 C 7.665,-13.749 7.495,-12.872 7.446,-11.68 L 7.337,-8.723 C 7.288,-7.41 6.99,-6.515 6.443,-6.041 5.895,-5.566 5.013,-5.329 3.796,-5.329 H 0 V -14.308 H -7.301 V 11.68 H 5.475 C 8.784,11.68 11.23,10.963 12.812,9.527 14.369,8.067 15.148,6.217 15.148,3.979 15.148,2.64 14.801,1.436 14.108,0.365 13.414,-0.706 12.41,-1.533 11.097,-2.117 12.41,-2.604 13.317,-3.309 13.816,-4.234 14.315,-5.159 14.6,-6.485 14.673,-8.213 Z"
         style="fill:#12204c;fill-opacity:1;fill-rule:nonzero;stroke:none"
         transform="matrix(0.35277776,0,0,-0.35277776,119.65148,106.10351)"
         clip-path="url(#clipPath12-7)" />
      <path
         id="path13"
         d="M 0,0 C -2.008,1.63 -3.011,3.857 -3.011,6.68 H 3.997 C 4.021,5.317 4.423,4.38 5.201,3.869 5.98,3.358 7.209,3.103 8.888,3.103 11.321,3.103 12.538,3.881 12.538,5.439 12.538,6.169 12.258,6.704 11.699,7.045 11.139,7.385 10.056,7.69 8.449,7.957 L 6.406,8.286 C 0.395,9.259 -2.61,12.058 -2.61,16.681 -2.61,19.139 -1.692,21.091 0.146,22.539 1.983,23.987 4.618,24.711 8.048,24.711 11.504,24.711 14.18,23.987 16.078,22.539 17.977,21.091 18.998,18.956 19.144,16.134 H 12.283 C 12.234,17.18 11.881,17.946 11.224,18.433 10.567,18.919 9.545,19.163 8.158,19.163 5.944,19.163 4.836,18.445 4.836,17.01 4.836,16.279 5.116,15.732 5.676,15.367 6.236,15.002 7.221,14.698 8.633,14.454 L 10.785,14.089 C 14.022,13.554 16.377,12.647 17.849,11.37 19.32,10.093 20.057,8.298 20.057,5.986 20.057,3.236 19.048,1.144 17.028,-0.292 15.008,-1.728 12.197,-2.446 8.596,-2.446 4.873,-2.446 2.008,-1.63 0,0"
         style="fill:#12204c;fill-opacity:1;fill-rule:nonzero;stroke:none"
         transform="matrix(0.35277776,0,0,-0.35277776,126.55866,110.49443)"
         clip-path="url(#clipPath14-1)" />
      <path
         id="path15"
         d="M 0,0 H 7.993 L -1.533,-15.987 V -25.988 H -8.832 V -15.987 L -18.506,0 H -10.293 L -8.614,-2.92 C -6.789,-6.108 -5.597,-8.224 -5.036,-9.271 -3.917,-7.081 -2.774,-4.952 -1.606,-2.883 Z"
         style="fill:#12204c;fill-opacity:1;fill-rule:nonzero;stroke:none"
         transform="matrix(0.35277776,0,0,-0.35277776,139.51788,101.983)"
         clip-path="url(#clipPath16-2)" />
      <path
         id="path17"
         d="M 0,0 V -6.497 H -7.665 V -25.988 H -14.966 V -6.497 H -22.63 V 0 Z"
         style="fill:#12204c;fill-opacity:1;fill-rule:nonzero;stroke:none"
         transform="matrix(0.35277776,0,0,-0.35277776,150.38467,101.983)"
         clip-path="url(#clipPath18-2)" />
      <path
         id="path19"
         d="M 0,0 H -13.213 V -3.431 H -1.167 V -9.49 H -13.213 V -12.994 H 0 V -19.491 H -20.514 V 6.497 H 0 Z"
         style="fill:#12204c;fill-opacity:1;fill-rule:nonzero;stroke:none"
         transform="matrix(0.35277776,0,0,-0.35277776,158.39273,104.27496)"
         clip-path="url(#clipPath20-1)" />
      <path
         id="path21"
         d="M 0,0 V -6.497 H -7.665 V -25.988 H -14.966 V -6.497 H -22.63 V 0 Z"
         style="fill:#12204c;fill-opacity:1;fill-rule:nonzero;stroke:none"
         transform="matrix(0.35277776,0,0,-0.35277776,166.82567,101.983)"
         clip-path="url(#clipPath22-8)" />
      <path
         id="path23"
         d="M 0,0 H 7.629 L 0.621,-25.988 H -7.556 L -9.162,-18.287 C -9.915,-14.612 -10.5,-11.449 -10.913,-8.796 -11.375,-11.668 -11.973,-14.831 -12.703,-18.287 L -14.309,-25.988 H -22.484 L -29.492,0 H -21.863 L -20.184,-7.483 C -19.115,-12.227 -18.383,-15.695 -17.994,-17.885 -17.435,-14.479 -16.79,-11.011 -16.06,-7.483 L -14.527,0 H -7.337 L -5.804,-7.483 C -5.074,-11.011 -4.429,-14.479 -3.869,-17.885 -3.455,-15.695 -2.725,-12.227 -1.679,-7.483 Z"
         style="fill:#12204c;fill-opacity:1;fill-rule:nonzero;stroke:none"
         transform="matrix(0.35277776,0,0,-0.35277776,82.881558,115.59383)"
         clip-path="url(#clipPath24-7)" />
      <path
         id="path25"
         d="M 0,0 C -2.008,1.63 -3.011,3.857 -3.011,6.68 H 3.997 C 4.021,5.317 4.423,4.38 5.201,3.869 5.98,3.358 7.209,3.103 8.888,3.103 11.321,3.103 12.538,3.881 12.538,5.439 12.538,6.169 12.258,6.704 11.699,7.045 11.139,7.385 10.056,7.69 8.449,7.957 L 6.406,8.286 C 0.395,9.259 -2.61,12.058 -2.61,16.681 -2.61,19.139 -1.692,21.091 0.146,22.539 1.983,23.987 4.618,24.711 8.048,24.711 11.504,24.711 14.18,23.987 16.078,22.539 17.977,21.091 18.998,18.956 19.144,16.134 H 12.283 C 12.234,17.18 11.881,17.946 11.224,18.433 10.567,18.919 9.545,19.163 8.158,19.163 5.944,19.163 4.836,18.445 4.836,17.01 4.836,16.279 5.116,15.732 5.676,15.367 6.236,15.002 7.221,14.698 8.633,14.454 L 10.785,14.089 C 14.022,13.554 16.377,12.647 17.849,11.37 19.32,10.093 20.057,8.298 20.057,5.986 20.057,3.236 19.048,1.144 17.028,-0.292 15.008,-1.728 12.197,-2.445 8.596,-2.445 4.873,-2.445 2.008,-1.63 0,0"
         style="fill:#12204c;fill-opacity:1;fill-rule:nonzero;stroke:none"
         transform="matrix(0.35277776,0,0,-0.35277776,86.633527,124.10527)"
         clip-path="url(#clipPath26-1)" />
      <path
         id="path27"
         d="M 0,0 C 1.752,0 2.629,0.791 2.629,2.373 2.629,3.955 1.752,4.745 0,4.745 H -5.475 V 0 Z M -5.475,14.564 V 10.111 H -0.366 C 0.56,10.038 1.211,10.391 1.588,11.17 1.966,11.948 1.966,12.727 1.588,13.506 1.211,14.284 0.56,14.637 -0.366,14.564 Z M 8.961,5.731 C 9.777,4.563 10.183,3.297 10.183,1.935 10.183,-0.499 9.363,-2.384 7.719,-3.723 6.077,-5.061 3.639,-5.73 0.402,-5.73 H -12.776 V 20.258 H 0.146 C 3.309,20.258 5.597,19.625 7.008,18.36 8.42,17.095 9.125,15.525 9.125,13.651 9.125,11.072 7.993,9.259 5.73,8.213 7.069,7.726 8.146,6.899 8.961,5.731"
         style="fill:#12204c;fill-opacity:1;fill-rule:nonzero;stroke:none"
         transform="matrix(0.35277776,0,0,-0.35277776,99.051939,122.74037)"
         clip-path="url(#clipPath28-9)" />
      <path
         id="path29"
         d="M 0,0 H 11.17 V -25.988 H 4.235 V -18.615 C 4.235,-13.846 4.308,-9.794 4.454,-6.46 3.919,-8.602 3.407,-10.524 2.921,-12.227 L -0.839,-25.988 H -6.753 L -10.512,-12.227 C -10.999,-10.524 -11.509,-8.602 -12.045,-6.46 -11.898,-9.794 -11.825,-13.846 -11.825,-18.615 V -25.988 H -18.761 V 0 H -7.592 L -5.11,-9.855 C -4.478,-12.386 -4.039,-14.247 -3.796,-15.44 -3.552,-14.247 -3.114,-12.386 -2.481,-9.855 Z"
         style="fill:#1e7dca;fill-opacity:1;fill-rule:nonzero;stroke:none"
         transform="matrix(0.35277776,0,0,-0.35277776,113.30434,115.59383)"
         clip-path="url(#clipPath30-7)" />
      <path
         id="path31"
         d="M 0,0 H -13.213 V -3.431 H -1.169 V -9.49 H -13.213 V -12.994 H 0 V -19.491 H -20.514 V 6.497 H 0 Z"
         style="fill:#1e7dca;fill-opacity:1;fill-rule:nonzero;stroke:none"
         transform="matrix(0.35277776,0,0,-0.35277776,125.7678,117.88579)"
         clip-path="url(#clipPath32-5)" />
      <path
         id="path33"
         d="M 0,0 H 4.38 C 6.545,0 7.628,0.998 7.628,2.993 7.628,4.989 6.545,5.986 4.38,5.986 H 0 Z M 14.819,-11.68 C 14.868,-12.751 15.086,-13.627 15.476,-14.308 H 7.956 C 7.665,-13.749 7.494,-12.872 7.446,-11.68 L 7.337,-8.723 C 7.287,-7.41 6.99,-6.516 6.442,-6.041 5.894,-5.566 5.012,-5.329 3.796,-5.329 H 0 V -14.308 H -7.301 V 11.68 H 5.475 C 8.784,11.68 11.229,10.963 12.812,9.527 14.368,8.067 15.148,6.217 15.148,3.979 15.148,2.64 14.801,1.436 14.107,0.365 13.414,-0.706 12.41,-1.533 11.095,-2.117 12.41,-2.604 13.316,-3.309 13.815,-4.234 14.314,-5.159 14.6,-6.485 14.673,-8.213 Z"
         style="fill:#1e7dca;fill-opacity:1;fill-rule:nonzero;stroke:none"
         transform="matrix(0.35277776,0,0,-0.35277776,129.30771,119.71435)"
         clip-path="url(#clipPath34-3)" />
      <path
         id="path35"
         d="M 492.276,169.452 H 499.577 V 143.464 H 492.276 Z"
         style="fill:#1e7dca;fill-opacity:1;fill-rule:nonzero;stroke:none"
         transform="matrix(0.35277776,0,0,-0.35277776,-38.06121,175.37277)"
         clip-path="url(#clipPath36-2)" />
      <path
         id="path37"
         d="M 0,0 V -6.497 H -7.665 V -25.988 H -14.966 V -6.497 H -22.631 V 0 Z"
         style="fill:#1e7dca;fill-opacity:1;fill-rule:nonzero;stroke:none"
         transform="matrix(0.35277776,0,0,-0.35277776,146.93394,115.59383)"
         clip-path="url(#clipPath38-3)" />
      <path
         id="path39"
         d="M 0,0 C 1.849,0 3.321,0.645 4.417,1.935 5.511,3.2 6.059,4.976 6.059,7.264 6.059,9.503 5.511,11.273 4.417,12.575 3.321,13.876 1.849,14.527 0,14.527 -1.85,14.527 -3.321,13.876 -4.417,12.575 -5.512,11.273 -6.059,9.503 -6.059,7.264 -6.059,4.976 -5.512,3.2 -4.417,1.935 -3.321,0.645 -1.85,0 0,0 M -9.892,-2.591 C -12.398,-0.158 -13.652,3.127 -13.652,7.264 -13.652,11.376 -12.398,14.674 -9.892,17.155 -7.361,19.613 -4.064,20.842 0,20.842 4.064,20.842 7.361,19.613 9.892,17.155 12.398,14.674 13.651,11.376 13.651,7.264 13.651,3.127 12.398,-0.158 9.892,-2.591 7.385,-5.074 4.088,-6.314 0,-6.314 -4.088,-6.314 -7.386,-5.074 -9.892,-2.591"
         style="fill:#1e7dca;fill-opacity:1;fill-rule:nonzero;stroke:none"
         transform="matrix(0.35277776,0,0,-0.35277776,151.74872,122.74037)"
         clip-path="url(#clipPath40-1)" />
      <path
         id="path41"
         d="M 0,0 C -2.008,1.63 -3.011,3.857 -3.011,6.68 H 3.997 C 4.021,5.317 4.423,4.38 5.201,3.869 5.98,3.358 7.209,3.103 8.888,3.103 11.321,3.103 12.538,3.881 12.538,5.439 12.538,6.169 12.258,6.704 11.699,7.045 11.139,7.385 10.056,7.69 8.449,7.957 L 6.406,8.286 C 0.395,9.259 -2.61,12.058 -2.61,16.681 -2.61,19.139 -1.692,21.091 0.146,22.539 1.983,23.987 4.618,24.711 8.048,24.711 11.504,24.711 14.18,23.987 16.078,22.539 17.977,21.091 18.998,18.956 19.144,16.134 H 12.283 C 12.234,17.18 11.881,17.946 11.224,18.433 10.567,18.919 9.545,19.163 8.158,19.163 5.944,19.163 4.836,18.445 4.836,17.01 4.836,16.279 5.116,15.732 5.676,15.367 6.236,15.002 7.221,14.698 8.633,14.454 L 10.785,14.089 C 14.022,13.554 16.377,12.647 17.849,11.37 19.32,10.093 20.057,8.298 20.057,5.986 20.057,3.236 19.048,1.144 17.028,-0.292 15.008,-1.728 12.197,-2.446 8.596,-2.446 4.873,-2.446 2.008,-1.63 0,0"
         style="fill:#12204c;fill-opacity:1;fill-rule:nonzero;stroke:none"
         transform="matrix(0.35277776,0,0,-0.35277776,73.797179,137.7161)"
         clip-path="url(#clipPath42-3)" />
      <path
         id="path43"
         d="M 0,0 V -6.497 H -22.302 V -0.876 L -14.637,7.702 C -13.469,8.992 -11.839,10.78 -9.746,13.068 -14.223,13.019 -16.741,12.994 -17.302,12.994 H -21.937 V 19.491 H -0.182 V 13.943 L -7.884,5.293 C -9.052,4.003 -10.683,2.215 -12.776,-0.073 -8.298,-0.024 -5.779,0 -5.22,0 Z"
         style="fill:#12204c;fill-opacity:1;fill-rule:nonzero;stroke:none"
         transform="matrix(0.35277776,0,0,-0.35277776,89.254489,136.0808)"
         clip-path="url(#clipPath44-7)" />
      <path
         id="path45"
         d="M 0,0 C -2.434,2.433 -3.651,5.73 -3.651,9.892 -3.651,14.053 -2.459,17.362 -0.073,19.82 2.286,22.253 5.536,23.47 9.673,23.47 13.006,23.47 15.853,22.57 18.214,20.769 20.525,18.944 21.924,16.425 22.411,13.213 H 15.037 C 14.697,14.503 14.052,15.495 13.103,16.188 12.155,16.881 11.011,17.228 9.673,17.228 7.799,17.228 6.375,16.596 5.402,15.331 4.428,14.065 3.942,12.252 3.942,9.892 3.942,7.531 4.428,5.719 5.402,4.453 6.375,3.187 7.799,2.555 9.673,2.555 11.132,2.555 12.343,2.951 13.304,3.741 14.265,4.532 14.88,5.646 15.148,7.081 H 22.447 C 22.034,3.674 20.671,1.034 18.36,-0.84 16.024,-2.738 13.128,-3.687 9.673,-3.687 5.633,-3.687 2.409,-2.458 0,0"
         style="fill:#12204c;fill-opacity:1;fill-rule:nonzero;stroke:none"
         transform="matrix(0.35277776,0,0,-0.35277776,90.863333,137.27827)"
         clip-path="url(#clipPath46-2)" />
      <path
         id="path47"
         d="M 0,0 V -6.497 H -22.301 V -0.876 L -14.636,7.702 C -13.469,8.992 -11.838,10.78 -9.746,13.068 -14.222,13.019 -16.741,12.994 -17.3,12.994 H -21.937 V 19.491 H -0.182 V 13.943 L -7.883,5.293 C -9.052,4.003 -10.683,2.215 -12.775,-0.073 -8.297,-0.024 -5.779,0 -5.219,0 Z"
         style="fill:#12204c;fill-opacity:1;fill-rule:nonzero;stroke:none"
         transform="matrix(0.35277776,0,0,-0.35277776,106.97032,136.0808)"
         clip-path="url(#clipPath48-7)" />
      <path
         id="path49"
         d="M 0,0 H -13.213 V -3.431 H -1.169 V -9.49 H -13.213 V -12.994 H 0 V -19.491 H -20.514 V 6.497 H 0 Z"
         style="fill:#12204c;fill-opacity:1;fill-rule:nonzero;stroke:none"
         transform="matrix(0.35277776,0,0,-0.35277776,115.17201,131.49663)"
         clip-path="url(#clipPath50-3)" />
      <path
         id="path51"
         d="M 0,0 C -2.434,2.433 -3.651,5.73 -3.651,9.892 -3.651,14.053 -2.459,17.362 -0.073,19.82 2.286,22.253 5.536,23.47 9.673,23.47 13.006,23.47 15.853,22.57 18.214,20.769 20.525,18.944 21.924,16.425 22.411,13.213 H 15.037 C 14.697,14.503 14.052,15.495 13.103,16.188 12.155,16.881 11.011,17.228 9.673,17.228 7.799,17.228 6.375,16.596 5.402,15.331 4.428,14.065 3.942,12.252 3.942,9.892 3.942,7.531 4.428,5.719 5.402,4.453 6.375,3.187 7.799,2.555 9.673,2.555 11.132,2.555 12.343,2.951 13.304,3.741 14.265,4.532 14.88,5.646 15.148,7.081 H 22.447 C 22.034,3.674 20.671,1.034 18.36,-0.84 16.024,-2.738 13.128,-3.687 9.673,-3.687 5.633,-3.687 2.409,-2.458 0,0"
         style="fill:#12204c;fill-opacity:1;fill-rule:nonzero;stroke:none"
         transform="matrix(0.35277776,0,0,-0.35277776,117.03796,137.27827)"
         clip-path="url(#clipPath52-9)" />
      <path
         id="path53"
         d="M 464.65,130.87 H 471.951 V 104.882 H 464.65 Z"
         style="fill:#12204c;fill-opacity:1;fill-rule:nonzero;stroke:none"
         transform="matrix(0.35277776,0,0,-0.35277776,-38.06121,175.37277)"
         clip-path="url(#clipPath54-6)" />
      <path
         id="path55"
         d="M 0,0 H 6.935 V -25.988 H -0.767 L -6.278,-16.754 C -7.763,-14.247 -8.955,-12.106 -9.856,-10.329 -9.735,-13.907 -9.673,-17.715 -9.673,-21.754 V -25.988 H -16.609 V 0 H -8.907 L -3.396,-9.234 C -2.081,-11.473 -0.889,-13.627 0.182,-15.695 0.061,-12.118 0,-8.298 0,-4.234 Z"
         style="fill:#12204c;fill-opacity:1;fill-rule:nonzero;stroke:none"
         transform="matrix(0.35277776,0,0,-0.35277776,135.57834,129.20467)"
         clip-path="url(#clipPath56-0)" />
      <path
         id="path57"
         d="M 0,0 -18.837,-54.186 H -23.014 L -41.768,0 -108.466,0.006 V -141.727 H -58.443 V -93.788 H -54.274 L -29.262,-141.721 H -12.588 L 12.423,-93.788 H 16.592 V -141.727 H 66.615 V 0.006 Z"
         style="fill:#1e7dca;fill-opacity:1;fill-rule:nonzero;stroke:none"
         transform="matrix(0.35277776,0,0,-0.35277776,37.203222,88.37473)"
         clip-path="url(#clipPath58-8)" />
    </g>
  </g>
</svg>
