<?xml version="1.0" encoding="UTF-8" standalone="no"?>
<!-- Created with Inkscape (http://www.inkscape.org/) -->

<svg
   width="257.88647mm"
   height="59.469185mm"
   viewBox="0 0 257.88647 59.469185"
   version="1.1"
   id="svg1741"
   inkscape:version="1.2 (dc2aedaf03, 2022-05-15)"
   sodipodi:docname="logo_black.svg"
   xmlns:inkscape="http://www.inkscape.org/namespaces/inkscape"
   xmlns:sodipodi="http://sodipodi.sourceforge.net/DTD/sodipodi-0.dtd"
   xmlns:xlink="http://www.w3.org/1999/xlink"
   xmlns="http://www.w3.org/2000/svg"
   xmlns:svg="http://www.w3.org/2000/svg">
  <sodipodi:namedview
     id="namedview1743"
     pagecolor="#ffffff"
     bordercolor="#999999"
     borderopacity="1"
     inkscape:showpageshadow="0"
     inkscape:pageopacity="0"
     inkscape:pagecheckerboard="0"
     inkscape:deskcolor="#d1d1d1"
     inkscape:document-units="mm"
     showgrid="false"
     inkscape:zoom="0.4204826"
     inkscape:cx="104.64167"
     inkscape:cy="491.10237"
     inkscape:current-layer="layer1" />
  <defs
     id="defs1738">
    <radialGradient
       inkscape:collect="always"
       xlink:href="#linearGradient2487"
       id="radialGradient11480"
       gradientUnits="userSpaceOnUse"
       gradientTransform="matrix(0.18790471,0,0,0.18790513,-266.61264,252.3197)"
       cx="1727.1555"
       cy="-45.408897"
       fx="1727.1555"
       fy="-45.408897"
       r="144.46655" />
    <linearGradient
       id="linearGradient2487"
       inkscape:collect="always">
      <stop
         id="stop2483"
         offset="0"
         style="stop-color:#6890ca;stop-opacity:1;" />
      <stop
         id="stop2485"
         offset="1"
         style="stop-color:#214478;stop-opacity:1" />
    </linearGradient>
    <radialGradient
       inkscape:collect="always"
       xlink:href="#linearGradient1534"
       id="radialGradient11482"
       gradientUnits="userSpaceOnUse"
       gradientTransform="matrix(0,-0.37312049,0.71359581,0,71.973175,-164.46099)"
       cx="-1094.1454"
       cy="-18.339108"
       fx="-1094.1454"
       fy="-18.339108"
       r="31.18132" />
    <linearGradient
       id="linearGradient1534"
       inkscape:collect="always">
      <stop
         id="stop1530"
         offset="0"
         style="stop-color:#aad400;stop-opacity:1" />
      <stop
         id="stop1532"
         offset="1"
         style="stop-color:#668000;stop-opacity:1" />
    </linearGradient>
    <radialGradient
       inkscape:collect="always"
       xlink:href="#linearGradient2487"
       id="radialGradient11484"
       gradientUnits="userSpaceOnUse"
       gradientTransform="matrix(0.18790471,0,0,0.18790513,-266.61264,252.3197)"
       cx="1727.1555"
       cy="-45.408897"
       fx="1727.1555"
       fy="-45.408897"
       r="144.46655" />
    <radialGradient
       inkscape:collect="always"
       xlink:href="#linearGradient1534"
       id="radialGradient11486"
       gradientUnits="userSpaceOnUse"
       gradientTransform="matrix(0,-0.37312049,0.71359581,0,71.973175,-164.46099)"
       cx="-1094.1454"
       cy="-18.339108"
       fx="-1094.1454"
       fy="-18.339108"
       r="31.18132" />
  </defs>
  <g
     inkscape:label="Layer 1"
     inkscape:groupmode="layer"
     id="layer1"
     transform="translate(315.19748,-38.22303)">
    <g
       id="g12519"
       inkscape:export-xdpi="90"
       inkscape:export-ydpi="90"
       transform="matrix(1.0953578,0,0,1.0953578,-348.91487,-199.07652)">
      <path
         inkscape:connector-curvature="0"
         id="path11452"
         d="m 45.694728,216.64147 c -1.276333,0.0155 -2.603896,0.55367 -3.644529,1.59431 l -0.333607,0.33361 c -1.958845,1.95885 -2.137421,4.93425 -0.400358,6.67135 l 12.7424,12.74237 0.333607,0.3334 0.400097,0.40035 c 0.840454,0.84042 1.97086,1.23114 3.13563,1.19008 1.164808,0.0411 2.295176,-0.34966 3.13563,-1.19008 l 0.400097,-0.40035 0.333645,-0.3334 12.742419,-12.74237 c 1.737062,-1.7371 1.558487,-4.7125 -0.400358,-6.67135 l -0.333458,-0.33361 c -1.958808,-1.95885 -4.934444,-2.13744 -6.671544,-0.40035 l -9.206431,9.20642 -9.206412,-9.20642 c -0.814261,-0.81426 -1.900601,-1.20758 -3.026828,-1.19396 z"
         style="opacity:1;fill:url(#radialGradient11480);fill-opacity:1;fill-rule:nonzero;stroke:none;stroke-width:75.3006;stroke-linecap:butt;stroke-linejoin:round;stroke-miterlimit:4;stroke-dasharray:none;stroke-opacity:1" />
      <path
         inkscape:connector-curvature="0"
         id="path11454"
         d="m 36.35485,225.98136 c -1.27637,0.0154 -2.603896,0.55365 -3.644491,1.59428 l -0.333645,0.33362 c -1.958845,1.95886 -2.13742,4.93426 -0.400358,6.67135 l 9.20645,9.20664 -9.20645,9.20642 c -1.737062,1.73709 -1.558487,4.71249 0.400358,6.67134 l 0.333421,0.33361 c 1.958845,1.95886 4.934481,2.13723 6.671543,0.40014 l 12.74214,-12.74216 0.333644,-0.33361 0.400358,-0.40036 c 0.840342,-0.84037 1.231074,-1.97068 1.190106,-3.13538 0.04108,-1.16478 -0.349652,-2.29519 -1.190106,-3.13561 l -0.400358,-0.40034 -0.333644,-0.33363 -12.74214,-12.74216 c -0.81426,-0.81426 -1.900601,-1.20779 -3.026828,-1.19415 z"
         style="opacity:1;fill:url(#radialGradient11482);fill-opacity:1;fill-rule:nonzero;stroke:none;stroke-width:75.3006;stroke-linecap:butt;stroke-linejoin:round;stroke-miterlimit:4;stroke-dasharray:none;stroke-opacity:1" />
      <path
         inkscape:connector-curvature="0"
         id="path11456"
         d="m 57.819204,247.66347 c -1.126227,-0.0136 -2.212568,0.37969 -3.026866,1.19395 l -0.400097,0.40013 -0.333607,0.33362 -12.7424,12.74237 c -1.737063,1.7371 -1.558487,4.7125 0.400358,6.67134 l 0.333607,0.33362 c 1.958845,1.95885 4.934294,2.13744 6.671357,0.40035 l 9.206412,-9.20663 9.206431,9.20641 c 1.7371,1.73709 4.712736,1.55872 6.671544,-0.40013 l 0.333458,-0.33362 c 1.958845,-1.95884 2.13742,-4.93424 0.400358,-6.67134 l -12.742419,-12.74237 -0.333645,-0.33341 -0.400097,-0.40034 c -0.840454,-0.84043 -1.970822,-1.23114 -3.13563,-1.1901 -0.03619,-10e-4 -0.07257,-0.003 -0.108764,-0.004 z"
         style="opacity:1;fill:url(#radialGradient11484);fill-opacity:1;fill-rule:nonzero;stroke:none;stroke-width:75.3006;stroke-linecap:butt;stroke-linejoin:round;stroke-miterlimit:4;stroke-dasharray:none;stroke-opacity:1" />
      <path
         style="opacity:1;fill:url(#radialGradient11486);fill-opacity:1;fill-rule:nonzero;stroke:none;stroke-width:75.3006;stroke-linecap:butt;stroke-linejoin:round;stroke-miterlimit:4;stroke-dasharray:none;stroke-opacity:1"
         d="m 36.35485,225.98136 c -1.27637,0.0154 -2.603896,0.55365 -3.644491,1.59428 l -0.333645,0.33362 c -1.958845,1.95886 -2.13742,4.93426 -0.400358,6.67135 l 9.20645,9.20664 -9.20645,9.20642 c -1.737062,1.73709 -1.558487,4.71249 0.400358,6.67134 l 0.333421,0.33361 c 1.958845,1.95886 4.934481,2.13723 6.671543,0.40014 l 12.74214,-12.74216 0.333644,-0.33361 0.400358,-0.40036 c 0.840342,-0.84037 1.231074,-1.97068 1.190106,-3.13538 0.04108,-1.16478 -0.349652,-2.29519 -1.190106,-3.13561 l -0.400358,-0.40034 -0.333644,-0.33363 -12.74214,-12.74216 c -0.81426,-0.81426 -1.900601,-1.20779 -3.026828,-1.19415 z"
         id="path11458"
         inkscape:connector-curvature="0" />
      <g
         transform="matrix(0.37312049,0,0,0.37312049,423.71181,-83.920693)"
         id="g11476">
        <g
           id="g11472"
           transform="matrix(2.213638,0,0,2.213638,1346.8613,-1065.0953)">
          <path
             d="m -1000.7677,895.27825 v -33.45118 h 10.59254 q 4.7822,0 7.6275,2.58237 2.8454,2.58236 2.8454,6.93412 0,2.91711 -1.4585,5.16472 -1.4586,2.24761 -3.9931,3.27577 -2.5346,1.00426 -7.2689,1.00426 h -3.5388 v 14.48994 z m 9.75564,-29.19506 h -4.9495 v 10.449 h 5.2365 q 2.9171,0 4.4952,-1.36291 1.5781,-1.38683 1.5781,-3.94528 0,-5.14081 -6.3603,-5.14081 z"
             style="font-style:normal;font-variant:normal;font-weight:normal;font-stretch:normal;font-size:48.9692px;line-height:125%;font-family:'Gill Sans MT';-inkscape-font-specification:'Gill Sans MT';text-align:start;letter-spacing:0px;word-spacing:0px;writing-mode:lr-tb;text-anchor:start;fill:#214478;fill-opacity:1;stroke:none;stroke-width:1.63355px;stroke-linecap:butt;stroke-linejoin:miter;stroke-opacity:1"
             id="path11460"
             inkscape:connector-curvature="0" />
          <path
             d="m -975.54176,861.87489 h 18.9373 v 4.25612 h -14.1551 v 10.18598 h 13.6769 v 4.28003 h -13.6769 v 10.37723 h 14.6094 v 4.2562 h -19.3916 z"
             style="font-style:normal;font-variant:normal;font-weight:normal;font-stretch:normal;font-size:48.9692px;line-height:125%;font-family:'Gill Sans MT';-inkscape-font-specification:'Gill Sans MT';text-align:start;letter-spacing:0px;word-spacing:0px;writing-mode:lr-tb;text-anchor:start;fill:#214478;fill-opacity:1;stroke:none;stroke-width:1.63355px;stroke-linecap:butt;stroke-linejoin:miter;stroke-opacity:1"
             id="path11462"
             inkscape:connector-curvature="0" />
          <path
             d="m -924.51616,861.87489 h 4.543 v 33.40336 h -4.1126 l -22.3327,-25.70409 v 25.70409 h -4.4952 v -33.40336 h 3.8735 l 22.524,25.91927 z"
             style="font-style:normal;font-variant:normal;font-weight:normal;font-stretch:normal;font-size:48.9692px;line-height:125%;font-family:'Gill Sans MT';-inkscape-font-specification:'Gill Sans MT';text-align:start;letter-spacing:0px;word-spacing:0px;writing-mode:lr-tb;text-anchor:start;fill:#214478;fill-opacity:1;stroke:none;stroke-width:1.63355px;stroke-linecap:butt;stroke-linejoin:miter;stroke-opacity:1"
             id="path11464"
             inkscape:connector-curvature="0" />
          <path
             d="m -883.32106,889.10925 v 6.1212 h -24.6281 v -33.40337 h 24.2933 v 6.12116 h -15.9723 v 7.00585 h 15.2311 v 6.12116 h -15.2311 v 8.034 z"
             style="font-style:normal;font-variant:normal;font-weight:bold;font-stretch:normal;font-size:97.2377px;line-height:125%;font-family:'Gill Sans MT';-inkscape-font-specification:'Gill Sans MT';text-align:start;letter-spacing:8.19372px;word-spacing:0px;writing-mode:lr-tb;text-anchor:start;fill:#7b9a00;fill-opacity:1;stroke:none;stroke-width:1.63355px;stroke-linecap:butt;stroke-linejoin:miter;stroke-opacity:1"
             id="path11466"
             inkscape:connector-curvature="0" />
          <path
             d="m -872.88226,861.82708 h 14.7291 q 8.5361,0 13.4856,4.68652 4.9735,4.66259 4.9735,12.07493 0,7.771 -5.0452,12.21842 -5.0213,4.4235 -14.3465,4.4235 h -13.7965 z m 8.321,6.12116 v 21.16101 h 5.4277 q 5.2843,0 8.0819,-2.89319 2.7975,-2.91711 2.7975,-7.67535 0,-4.92562 -2.8454,-7.74709 -2.8215,-2.84538 -8.1296,-2.84538 z"
             style="font-style:normal;font-variant:normal;font-weight:bold;font-stretch:normal;font-size:97.2377px;line-height:125%;font-family:'Gill Sans MT';-inkscape-font-specification:'Gill Sans MT';text-align:start;letter-spacing:8.19372px;word-spacing:0px;writing-mode:lr-tb;text-anchor:start;fill:#7b9a00;fill-opacity:1;stroke:none;stroke-width:1.63355px;stroke-linecap:butt;stroke-linejoin:miter;stroke-opacity:1"
             id="path11468"
             inkscape:connector-curvature="0" />
          <path
             d="m -799.81262,864.14643 v 7.29278 q -6.38418,-3.08448 -12.4814,-3.08448 -5.88204,0 -9.06219,2.96493 -3.18011,2.96493 -3.18011,7.5558 0,4.39958 3.18011,7.1254 3.18015,2.72579 8.36878,2.72579 2.74972,0 5.52337,-1.1955 v -3.89745 h -4.82996 v -6.12116 h 13.17482 v 13.65301 q -1.9846,1.9846 -6.04944,3.2519 -4.04091,1.2434 -8.01006,1.2434 -8.72745,0 -14.3465,-4.8061 -5.59508,-4.82997 -5.59508,-12.26622 0,-7.60362 5.59508,-12.38578 5.61905,-4.80606 14.53777,-4.80606 7.36449,0 13.17481,2.74974 z"
             style="font-style:normal;font-variant:normal;font-weight:bold;font-stretch:normal;font-size:97.2377px;line-height:125%;font-family:'Gill Sans MT';-inkscape-font-specification:'Gill Sans MT';text-align:start;letter-spacing:8.19372px;word-spacing:0px;writing-mode:lr-tb;text-anchor:start;fill:#7b9a00;fill-opacity:1;stroke:none;stroke-width:1.63355px;stroke-linecap:butt;stroke-linejoin:miter;stroke-opacity:1"
             id="path11470"
             inkscape:connector-curvature="0" />
        </g>
        <path
           style="opacity:1;fill:#214478;fill-opacity:1;fill-rule:nonzero;stroke:none;stroke-width:0.201558;stroke-linecap:round;stroke-miterlimit:4;stroke-dasharray:none;stroke-dashoffset:0;stroke-opacity:1"
           d="m -921.80626,839.00523 a 38.860687,38.860687 0 0 0 -38.86067,38.86068 38.860687,38.860687 0 0 0 38.86067,38.86068 38.860687,38.860687 0 0 0 38.86068,-38.86068 38.860687,38.860687 0 0 0 -38.86068,-38.86068 z m 0,10.61072 a 28.250168,28.250168 0 0 1 28.24996,28.24996 28.250168,28.250168 0 0 1 -28.24996,28.24996 28.250168,28.250168 0 0 1 -28.24996,-28.24996 28.250168,28.250168 0 0 1 28.24996,-28.24996 z"
           id="path11474"
           inkscape:connector-curvature="0" />
      </g>
    </g>
  </g>
</svg>
